<svg width="600" height="600" viewBox="0 0 600 600" fill="none" xmlns="http://www.w3.org/2000/svg">
<g clip-path="url(#clip0_2198_4)">
<mask id="mask0_2198_4" style="mask-type:luminance" maskUnits="userSpaceOnUse" x="0" y="0" width="600" height="600">
<path d="M600 300C600 134.315 465.685 0 300 0C134.315 0 0 134.315 0 300C0 465.685 134.315 600 300 600C465.685 600 600 465.685 600 300Z" fill="white"/>
</mask>
<g mask="url(#mask0_2198_4)">
<path d="M600 0H0V600H600V0Z" fill="#E8EE58"/>
<path d="M240.441 112.5C245.314 112.5 249.265 116.697 249.265 121.875V192.188H300C304.873 192.188 308.824 196.385 308.824 201.562V220.312C308.824 225.49 304.873 229.688 300 229.688H249.265V393.75H249.35C251.052 428.62 277.923 456.417 311.029 457.021V457.031H313.235C318.109 457.031 322.059 461.229 322.059 466.406V478.125C322.059 483.302 318.109 487.5 313.235 487.5H308.824V487.434C307.725 487.475 306.622 487.5 305.515 487.5C256.063 487.5 215.771 445.84 214.029 393.75H213.971V229.688H158.824C153.95 229.688 150 225.49 150 220.312V201.562C150 196.385 153.95 192.188 158.824 192.188H213.971V121.875C213.971 116.698 217.921 112.5 222.794 112.5H240.441Z" fill="black"/>
<path d="M336.898 192.188C369.793 192.188 396.457 221.044 396.457 256.641C396.457 275.552 388.93 292.561 376.942 304.352C410.346 318.304 433.957 352.546 433.957 392.578C433.957 444.593 394.096 486.835 344.685 487.492L343.516 487.5C338.643 487.5 334.693 483.302 334.693 478.125V466.406C334.693 461.229 338.643 457.031 343.516 457.031V457.021C376.51 456.396 403.075 427.783 403.075 392.578C403.075 357.373 376.51 328.76 343.516 328.136V328.125H286.163C281.29 328.125 277.339 323.927 277.339 318.75V300C277.339 294.823 281.29 290.625 286.163 290.625H336.898V290.546C352.924 289.386 365.575 275.699 365.575 258.984C365.575 242.27 352.925 228.582 336.898 227.423V227.344H330.28C325.408 227.344 321.457 223.146 321.457 217.969V201.562C321.457 196.385 325.407 192.188 330.28 192.188H336.898Z" fill="black"/>
</g>
<path d="M560 300C560 360.503 538.9 419.112 500.333 465.73C461.767 512.349 408.15 544.058 348.719 555.395L346.283 542.625C402.743 531.855 453.679 501.731 490.317 457.444C526.955 413.156 547 357.478 547 300H560Z" fill="black"/>
<path d="M300 560C239.497 560 180.888 538.9 134.27 500.333C87.6514 461.767 55.9424 408.15 44.6053 348.719L57.375 346.283C68.1453 402.743 98.2688 453.679 142.556 490.317C186.844 526.955 242.522 547 300 547L300 560Z" fill="black"/>
<path d="M40 300C40 239.497 61.1005 180.888 99.6666 134.27C138.233 87.6514 191.85 55.9425 251.281 44.6053L253.717 57.3751C197.257 68.1453 146.321 98.2688 109.683 142.556C73.0455 186.844 53 242.522 53 300L40 300Z" fill="black"/>
<path d="M300 40C360.503 40 419.112 61.1005 465.73 99.6666C512.349 138.233 544.058 191.85 555.395 251.281L542.625 253.717C531.855 197.257 501.731 146.321 457.444 109.683C413.156 73.0455 357.478 53 300 53L300 40Z" fill="black"/>
</g>
<defs>
<clipPath id="clip0_2198_4">
<rect width="600" height="600" fill="white"/>
</clipPath>
</defs>
</svg>
